<?xml version="1.0" encoding="utf-8"?>
<!-- Generator: Adobe Illustrator 25.4.0, SVG Export Plug-In . SVG Version: 6.00 Build 0)  -->
<svg version="1.1" id="Layer_1" xmlns="http://www.w3.org/2000/svg" xmlns:xlink="http://www.w3.org/1999/xlink" x="0px" y="0px"
	 viewBox="0 0 24 24" style="enable-background:new 0 0 24 24;" xml:space="preserve">
<style type="text/css">
	.st0{fill:#FFFFFF;}
</style>
<g>
	<rect x="10.58" y="13.13" class="st0" width="1.39" height="1.39"/>
	<rect x="11.36" y="11.09" class="st0" width="1.48" height="1.48"/>
	<rect x="9.65" y="15.12" class="st0" width="1.21" height="1.21"/>
	<rect x="7.84" y="16.14" class="st0" width="1.11" height="1.11"/>
	<rect x="5.89" y="16.42" class="st0" width="1.02" height="1.02"/>
	<rect x="3.95" y="15.73" class="st0" width="0.97" height="0.97"/>
	<rect x="2.37" y="14.33" class="st0" width="0.93" height="0.93"/>
	<rect x="1.58" y="12.53" class="st0" width="0.79" height="0.79"/>
	<rect x="1.58" y="10.53" class="st0" width="0.74" height="0.74"/>
	<rect x="2.23" y="8.96" class="st0" width="0.7" height="0.7"/>
	<rect x="3.48" y="7.52" class="st0" width="0.65" height="0.65"/>
	<rect x="5.34" y="6.64" class="st0" width="0.56" height="0.56"/>
	<rect x="7.14" y="6.45" class="st0" width="0.51" height="0.51"/>
	<rect x="9.05" y="7.01" class="st0" width="0.46" height="0.46"/>
	<rect x="10.48" y="8.12" class="st0" width="0.42" height="0.42"/>
	
		<rect x="12.24" y="9.14" transform="matrix(-1 -1.224647e-16 1.224647e-16 -1 25.879 19.6752)" class="st0" width="1.39" height="1.39"/>
	
		<rect x="13.36" y="7.33" transform="matrix(-1 -1.224647e-16 1.224647e-16 -1 27.9188 15.8738)" class="st0" width="1.21" height="1.21"/>
	
		<rect x="15.26" y="6.41" transform="matrix(-1 -1.224647e-16 1.224647e-16 -1 31.6275 13.9267)" class="st0" width="1.11" height="1.11"/>
	
		<rect x="17.3" y="6.22" transform="matrix(-1 -1.224647e-16 1.224647e-16 -1 35.6144 13.4631)" class="st0" width="1.02" height="1.02"/>
	
		<rect x="19.29" y="6.96" transform="matrix(-1 -1.224647e-16 1.224647e-16 -1 39.5549 14.9002)" class="st0" width="0.97" height="0.97"/>
	
		<rect x="20.91" y="8.4" transform="matrix(-1 -1.224647e-16 1.224647e-16 -1 42.7537 17.7281)" class="st0" width="0.93" height="0.93"/>
	
		<rect x="21.84" y="10.35" transform="matrix(-1 -1.224647e-16 1.224647e-16 -1 44.469 21.4832)" class="st0" width="0.79" height="0.79"/>
	
		<rect x="21.89" y="12.39" transform="matrix(-1 -1.224647e-16 1.224647e-16 -1 44.5154 25.5165)" class="st0" width="0.74" height="0.74"/>
	
		<rect x="21.28" y="14.01" transform="matrix(-1 -1.224647e-16 1.224647e-16 -1 43.2637 28.7153)" class="st0" width="0.7" height="0.7"/>
	
		<rect x="20.08" y="15.49" transform="matrix(-1 -1.224647e-16 1.224647e-16 -1 40.8066 31.6359)" class="st0" width="0.65" height="0.65"/>
	
		<rect x="18.32" y="16.47" transform="matrix(-1 -1.224647e-16 1.224647e-16 -1 37.1906 33.4902)" class="st0" width="0.56" height="0.56"/>
	
		<rect x="16.56" y="16.7" transform="matrix(-1 -1.224647e-16 1.224647e-16 -1 33.621 33.9075)" class="st0" width="0.51" height="0.51"/>
	
		<rect x="14.7" y="16.19" transform="matrix(-1 -1.224647e-16 1.224647e-16 -1 29.8659 32.8412)" class="st0" width="0.46" height="0.46"/>
	
		<rect x="13.31" y="15.12" transform="matrix(-1 -1.224647e-16 1.224647e-16 -1 27.038 30.6623)" class="st0" width="0.42" height="0.42"/>
	<rect x="11.36" y="9.47" class="st0" width="0.28" height="0.28"/>
	<rect x="12.57" y="13.92" class="st0" width="0.28" height="0.28"/>
</g>
</svg>
